<svg xmlns="http://www.w3.org/2000/svg" xmlns:xlink="http://www.w3.org/1999/xlink" viewBox="0 0 194.76 219.25">
    <defs>
        <style>
            .cls-1 {
                fill: none;
            }

            .cls-2 {
                isolation: isolate;
            }

            .cls-15,
            .cls-3,
            .cls-4 {
                fill: #bee1f4;
            }

            .cls-3,
            .cls-4 {
                opacity: 0.5;
            }

            .cls-10,
            .cls-11,
            .cls-16,
            .cls-17,
            .cls-19,
            .cls-20,
            .cls-21,
            .cls-22,
            .cls-29,
            .cls-30,
            .cls-31,
            .cls-32,
            .cls-34,
            .cls-36,
            .cls-4,
            .cls-6,
            .cls-7,
            .cls-8,
            .cls-9 {
                fill-rule: evenodd;
            }

            .cls-5,
            .cls-6 {
                fill: #071944;
            }

            .cls-12,
            .cls-7 {
                fill: #091e61;
            }

            .cls-27,
            .cls-8 {
                fill: #fff;
            }

            .cls-37,
            .cls-9 {
                fill: #ffc8af;
            }

            .cls-10 {
                fill: url(#linear-gradient);
            }

            .cls-11 {
                fill: url(#linear-gradient-2);
            }

            .cls-13 {
                fill: #081d51;
            }

            .cls-14 {
                fill: url(#linear-gradient-3);
            }

            .cls-16 {
                fill: #112b46;
            }

            .cls-17 {
                fill: #ffb9b0;
            }

            .cls-18 {
                fill: url(#linear-gradient-4);
            }

            .cls-19 {
                fill: url(#linear-gradient-5);
            }

            .cls-20 {
                fill: #ffbe9d;
            }

            .cls-21 {
                fill: #ec827d;
            }

            .cls-22 {
                fill: url(#linear-gradient-6);
            }

            .cls-23 {
                mix-blend-mode: multiply;
            }

            .cls-24 {
                fill: url(#linear-gradient-7);
            }

            .cls-25 {
                clip-path: url(#clip-path);
            }

            .cls-26 {
                opacity: 0.16;
            }

            .cls-28 {
                opacity: 0.28;
            }

            .cls-30 {
                fill: #878cf0;
            }

            .cls-31 {
                fill: url(#linear-gradient-8);
            }

            .cls-32 {
                fill: url(#linear-gradient-9);
            }

            .cls-33 {
                fill: url(#linear-gradient-10);
            }

            .cls-34 {
                fill: #56548c;
            }

            .cls-35 {
                fill: url(#linear-gradient-11);
            }

            .cls-36 {
                fill: url(#linear-gradient-12);
            }

            .cls-38 {
                fill: url(#linear-gradient-13);
            }
            .cls-23{
                animation: rotate3d 4s linear infinite alternate;
            }
            @keyframes rotate3d{
                0% { 
					transform: translateY(-1%);
				}
                90%{
                    transform: translate(0px,  0.75px);
                }
<!--
                0%{
                    transform: translate(1px, -0.2px) rotate(3deg);
                }
                90%{
                    transform: translate(0px,  0.75px) rotate(-5deg);
                }
-->
            }
            .cls2{
                fill: #bee1f4;
            }
            .cls2,.shadow{
                animation: white 3s infinite;
                -webkit-animation-delay: 4s;
                animation-delay: 4s;
            }
            @keyframes white{
                0% {
                    opacity: 0;
                    fill: #bee1f4;
                }
                50% {
                    opacity: 0.3;
                    fill: #fff;
                }
                60% {
                    opacity: 1;
                    fill: #fff;
                }
                100% {
                    opacity: 1;
                    fill: #fff;
                }
            }
<!--
            @keyframes white1{
                0%{
                    fill: #bee1f4;
                }
            }
-->
        </style>
        <linearGradient id="linear-gradient" x1="143.63" y1="29.28" x2="147.06" y2="29.28" gradientUnits="userSpaceOnUse">
            <stop offset="0" stop-color="#ffc05c" />
            <stop offset="1" stop-color="#ff3857" />
        </linearGradient>
        <linearGradient id="linear-gradient-2" x1="141.78" y1="43.4" x2="145.87" y2="43.4" xlink:href="#linear-gradient" />
        <linearGradient id="linear-gradient-3" x1="75.04" y1="156.31" x2="98.73" y2="156.31" gradientUnits="userSpaceOnUse">
            <stop offset="0" stop-color="#3b2eed" />
            <stop offset="1" stop-color="#58d0ff" />
        </linearGradient>
        <linearGradient id="linear-gradient-4" x1="21.02" y1="46.1" x2="36.46" y2="46.1" gradientUnits="userSpaceOnUse">
            <stop offset="0" stop-color="#ffa897" />
            <stop offset="1" stop-color="#f43e3b" />
        </linearGradient>
        <linearGradient id="linear-gradient-5" x1="3.06" y1="60.45" x2="30.7" y2="60.45" xlink:href="#linear-gradient-4" />
        <linearGradient id="linear-gradient-6" x1="1.76" y1="54.65" x2="21.64" y2="54.65" xlink:href="#linear-gradient-4" />
        <linearGradient id="linear-gradient-7" x1="29.93" y1="73.79" x2="143.85" y2="73.79" xlink:href="#linear-gradient-3" />
        <clipPath id="clip-path" transform="translate(0 -0.75)">
            <circle id="_Clipping_Path_" data-name="&lt;Clipping Path&gt;" class="cls-1" cx="86.89" cy="73.79" r="56.96" />
        </clipPath>
        <linearGradient id="linear-gradient-8" x1="19.62" y1="116.37" x2="24.48" y2="116.37" xlink:href="#linear-gradient-3" />
        <linearGradient id="linear-gradient-9" x1="20.62" y1="132.07" x2="48.81" y2="132.07" xlink:href="#linear-gradient-3" />
        <linearGradient id="linear-gradient-10" x1="34.12" y1="112.69" x2="68.01" y2="112.69" xlink:href="#linear-gradient-3" />
        <linearGradient id="linear-gradient-11" x1="133.27" y1="94.14" x2="146.26" y2="94.14" xlink:href="#linear-gradient" />
        <linearGradient id="linear-gradient-12" x1="114.79" y1="132.43" x2="141.52" y2="132.43" xlink:href="#linear-gradient" />
        <linearGradient id="linear-gradient-13" x1="93.4" y1="125.49" x2="128.1" y2="125.49" xlink:href="#linear-gradient" />
    </defs>
    <title>banner_img</title>
    <g class="cls-2">
        <g id="OBJECTS">
            <path class="cls-3 shadow" d="M42,108.82s36.65,48.74,92.53,1L95.72,156.57,78,156.31Z" transform="translate(0 -0.75)" />
            <path id="_Path_" data-name="&lt;Path&gt;" class="cls-4" d="M161.1,131c-7.4,4.27-19.44,4.25-26.88,0s-7.48-11.25-.08-15.52,19.44-4.25,26.88,0S168.5,126.73,161.1,131Z" transform="translate(0 -0.75)" />
            <g id="_Group_" data-name="&lt;Group&gt;">
                <g id="_Group_2" data-name="&lt;Group&gt;">
                    <g id="_Group_3" data-name="&lt;Group&gt;">
                        <path class="cls-5" d="M135.87,41.1c2.3-4.89,10.37-19.84,4-21.5-5,1.4-7.87,12.83-9.53,17.33a57.15,57.15,0,0,1,4.46,6A9.72,9.72,0,0,0,135.87,41.1Z" transform="translate(0 -0.75)" />
                        <path id="_Path_2" data-name="&lt;Path&gt;" class="cls-6" d="M139.64,112.17s-6.79,7.93-8.6,8.46-.18,2.4,1.21,2.54,5.81,0,7.1-1.31,4.93-2.62,4.93-2.62a20.52,20.52,0,0,0-1-6.7Z" transform="translate(0 -0.75)" />
                        <path id="_Path_3" data-name="&lt;Path&gt;" class="cls-7" d="M137.25,56.15s-.88,17.55-.56,23.31,1.72,34.33,1.72,34.33a12.41,12.41,0,0,0,6.08,0c1.22-21.91,1.19-28.21,1.54-31.47s.78-12.71.78-12.71c2.62-5.42-.12-12.48-1.41-14.17S137.25,56.15,137.25,56.15Z" transform="translate(0 -0.75)" />
                        <path id="_Path_4" data-name="&lt;Path&gt;" class="cls-6" d="M150.73,119.7c-.23,3.21-1.39,7-1.68,8.91a4.56,4.56,0,0,0,.84,3.63c.44.62,5.87-1.18,6.61-3.27s-.78-3.92-.9-7.84A3.54,3.54,0,0,0,150.73,119.7Z" transform="translate(0 -0.75)" />
                        <path id="_Path_5" data-name="&lt;Path&gt;" class="cls-7" d="M142.89,57.51s.93,16,2.41,21.3,2.79,20.93,3.42,23.65S150.12,122,150.12,122a12,12,0,0,0,6,0c-.07-15.75.31-28.54,0-32.86s.12-17.12.12-17.12c1.4-6,1.48-6.72,0-10.68S148.42,54.24,142.89,57.51Z" transform="translate(0 -0.75)" />
                        <path id="_Path_6" data-name="&lt;Path&gt;" class="cls-8" d="M139.82,19.6c4.9-.22,16.25,2.33,20,7.1s-1.69,13.19-3,18.27.6,17.83.6,19c-5.8,3.85-19.78,4.33-21.35-1.4-.65-6.24.78-13.66.86-17.31C136.74,37.45,133.34,21.92,139.82,19.6Z" transform="translate(0 -0.75)" />
                        <path id="_Path_7" data-name="&lt;Path&gt;" class="cls-6" d="M144,20.76c-3.15,11.07-3.89,23.49-3.59,28.19s.43,19.89.43,19.89c-3.67-1.93-5.28-5.47-5.28-7.08S137,46.41,136.93,45.3s-1.85-13.72-1.34-19.39,4.23-6.31,4.23-6.31h4.72Z" transform="translate(0 -0.75)" />
                        <path id="_Path_8" data-name="&lt;Path&gt;" class="cls-7" d="M141,7.4c-2.16.68,0,5.59,0,5.59Z" transform="translate(0 -0.75)" />
                        <path id="_Path_9" data-name="&lt;Path&gt;" class="cls-9" d="M140.87,8a15.09,15.09,0,0,0-.51,5.1c.31,2.23.51,6.68,2.49,8.1s4.81-.23,6.69-1.82a11.15,11.15,0,0,0,3.91-8.09c0-3.56-1.35-7.91-6.47-7.69A6.21,6.21,0,0,0,140.87,8Z" transform="translate(0 -0.75)" />
                        <path id="_Path_10" data-name="&lt;Path&gt;" class="cls-9" d="M150.83,16.26s-.4,4.58.8,6.27c.09,1.13-3.14,5.9-6.36,5.07-1.87-.49-1.65-2.67-1.65-2.67a51.45,51.45,0,0,0,0-5.69Z" transform="translate(0 -0.75)" />
                        <path id="_Path_11" data-name="&lt;Path&gt;" class="cls-7" d="M139.61,4.21c-.73,2.64.1,3.58,2.32,4.34s8.13-1,8.13-1a6.87,6.87,0,0,0,.49,4.29c1-2.77,1.87-1.36,2,.86s-1.16,2.17-1.16,2.17a4.09,4.09,0,0,0,.69,2.5c2.38-1.64,5.61-12.63,1.33-12.88C153.31.68,141.18-1.44,139.61,4.21Z" transform="translate(0 -0.75)" />
                        <path id="_Path_12" data-name="&lt;Path&gt;" class="cls-6" d="M151.83,21.8c-3.81,8-5.81,15.37-5.68,22s1.5,25.94,1.5,25.94c6.61-1.61,11.12-3.48,12.4-5.73-2.83-7.47-3.86-12.49-3.28-14.61s5.57-18.32,3-23.13C157.28,23.59,151.83,21.8,151.83,21.8Z" transform="translate(0 -0.75)" />
                        <path id="_Path_13" data-name="&lt;Path&gt;" class="cls-6" d="M158,24.95c4.56,2.27,7.85,13.17,11.33,16.54,2,1.91,11.7,4.4,14.4,4.47,1,2.39-.84,5-.84,5-16.61-1.56-17.34-2.47-22.45-9C154.09,33.92,151.89,23.39,158,24.95Z" transform="translate(0 -0.75)" />
                    </g>
                    <path id="_Path_14" data-name="&lt;Path&gt;" class="cls-8" d="M151,20.73a9.36,9.36,0,0,0,.85,1.07s-1.65,3.61-2.25,5.21a8.46,8.46,0,0,1-2.16,2.93l-2.14-2.34C148.22,26,151,20.73,151,20.73Z" transform="translate(0 -0.75)" />
                    <path id="_Path_15" data-name="&lt;Path&gt;" class="cls-9" d="M183.38,46.69a16.69,16.69,0,0,1,4-.61,26.65,26.65,0,0,0,3.82-.48c.35,0,.22,1.35-2.17,1.65,2,.52,3.69.87,4.86.48s1,1.22,0,2.3-2.74,1.26-3.91,1.39a27.51,27.51,0,0,1-7.17-1.3C182.38,47.43,183.38,46.69,183.38,46.69Z" transform="translate(0 -0.75)" />
                </g>
                <path id="_Path_16" data-name="&lt;Path&gt;" class="cls-8" d="M143.89,21.88c.2-.24.67,4.51,1.38,5.71a8.74,8.74,0,0,1-2.19,1.64S142.26,23.92,143.89,21.88Z" transform="translate(0 -0.75)" />
                <path id="_Path_17" data-name="&lt;Path&gt;" class="cls-10" d="M145.46,27.5l-1.83,1.12a11,11,0,0,1,.45,2.43h1.71l1.27-1.82Z" transform="translate(0 -0.75)" />
                <path id="_Path_18" data-name="&lt;Path&gt;" class="cls-11" d="M144.07,31.05c-2.54,13.2-2.28,21.37-2.28,21.37l1.29,3.63L145.87,52s-2-15.51-.09-20.93A1.29,1.29,0,0,0,144.07,31.05Z" transform="translate(0 -0.75)" />
            </g>
            <path id="_Path_19" data-name="&lt;Path&gt;" class="cls-4" d="M52.6,211.76c-7.4,4.27-19.44,4.25-26.88,0s-7.48-11.25-.08-15.52,19.44-4.25,26.88,0S60,207.49,52.6,211.76Z" transform="translate(0 -0.75)" />
            <path id="_Path_20" data-name="&lt;Path&gt;" class="cls-4" d="M139.91,215.92c-9.47,5.47-24.87,5.44-34.4-.06s-9.58-14.39-.11-19.86,24.87-5.44,34.4.06S149.38,210.45,139.91,215.92Z" transform="translate(0 -0.75)" />
            <path id="_Path_21" data-name="&lt;Path&gt;" class="cls-4" d="M35.93,150c-8.18,4.72-21.49,4.7-29.73-.05s-8.28-12.44-.09-17.16,21.49-4.7,29.73.05S44.11,145.31,35.93,150Z" transform="translate(0 -0.75)" />
            <g id="_Group_4" data-name="&lt;Group&gt;">
                <path id="_Path_22" data-name="&lt;Path&gt;" class="cls-12" d="M99,173.4c-6.64,3.83-17.44,3.81-24.12,0s-6.72-10.09-.08-13.93,17.44-3.81,24.12,0S105.63,169.56,99,173.4Z" transform="translate(0 -0.75)" />
                <polygon id="_Path_23" data-name="&lt;Path&gt;" class="cls-13" points="75.6 153.44 70.46 162.96 103.5 163.5 98.38 153.93 75.6 153.44" />
                <path id="_Path_24" data-name="&lt;Path&gt;" class="cls-14" d="M95.29,161.16c-4.61,2.66-12.11,2.65-16.75,0s-4.66-7-.05-9.67,12.11-2.65,16.75,0S99.9,158.5,95.29,161.16Z" transform="translate(0 -0.75)" />
<!--                <path id="_Path_25" data-name="&lt;Path&gt;" class="cls1" d="M93.16,159.93a13.83,13.83,0,0,1-12.51,0c-3.47-2-3.48-5.23,0-7.22a13.83,13.83,0,0,1,12.51,0C96.59,154.71,96.61,157.94,93.16,159.93Z" transform="translate(0 -0.75)" />-->
                <path id="_Path_25" data-name="&lt;Path&gt;" class="cls2" d="M93.16,159.93a13.83,13.83,0,0,1-12.51,0c-3.47-2-3.48-5.23,0-7.22a13.83,13.83,0,0,1,12.51,0C96.59,154.71,96.61,157.94,93.16,159.93Z" transform="translate(0 -0.75)" />
            </g>
            <g id="_Group_5" data-name="&lt;Group&gt;">
                <g id="_Group_6" data-name="&lt;Group&gt;">
                    <path id="_Path_26" data-name="&lt;Path&gt;" class="cls-16" d="M22.79,136.49c.17,2.47.4,4.93.4,4.93h.55s0-3.73.58-2.95C24.24,136.45,22.79,136.49,22.79,136.49Z" transform="translate(0 -0.75)" />
                    <path id="_Path_27" data-name="&lt;Path&gt;" class="cls-17" d="M30.4,140.7c.26,0,.62-.29.94-.72-.56-.67-1.12-1.32-1.49-1.83-1.19-1.65-3.11-5.3-3.2-6.95s.91-18.82,1.19-20.92,1.06-10,1-10.5-7.38,2.82-7.38,2.82c.09.65,1.08,4.76.68,7.41s-1,4.4-.68,8.73S23.92,130,23.19,133.3l0,.17C25.3,136.41,26.06,142.15,30.4,140.7Z" transform="translate(0 -0.75)" />
                    <path id="_Path_28" data-name="&lt;Path&gt;" class="cls-16" d="M31.34,140c-.32.43-.67.72-.94.72-4.35,1.45-5.1-4.28-7.25-7.23-.68,3.13-.38,3.49.19,3.94a11.7,11.7,0,0,1,3,4.66c.37,1.74,5.85,1.55,6.85,1.19C33.83,143,32.58,141.45,31.34,140Z" transform="translate(0 -0.75)" />
                    <path id="_Path_29" data-name="&lt;Path&gt;" class="cls-17" d="M15.3,117.4c-.21,1.92-1.34,16.72-1.15,19.19a47.74,47.74,0,0,0,1.27,5.77,6.41,6.41,0,0,1,.29,2.72c-.44,1.26-.46,5-2.5,4.18s-3.4-3.47-3-6.37-.08-4.3,0-6-1-12.52-1.23-16.35,1.1-5.67,1.19-8.23a64.31,64.31,0,0,0-.68-7.89s8.81-4.62,8.08.95S15.51,115.49,15.3,117.4Z" transform="translate(0 -0.75)" />
                    <path id="_Path_30" data-name="&lt;Path&gt;" class="cls-6" d="M6.2,75.21c-1.2,6,1.66,10,2.18,11.42s-1.15,18.45-1.15,18.45c4.63,7.12,20.8,2.74,23.45-1.74-.36-10.53-1.27-27.77-1.18-29.59S6.2,75.21,6.2,75.21Z" transform="translate(0 -0.75)" />
                    <path id="_Path_31" data-name="&lt;Path&gt;" class="cls-16" d="M16.06,145.22c-.14,2.57-.82,4.89-2.86,4s-3.4-3.47-3-6.37c1.1,3.2,5.28,3.06,5.2-.53A18.06,18.06,0,0,1,16.06,145.22Z" transform="translate(0 -0.75)" />
                </g>
                <path id="_Path_32" data-name="&lt;Path&gt;" class="cls-7" d="M22,19.45c2.79,2.66,3.71,5,3.31,7.58s-.87,5.91.46,6.89c-2.84,2.2-8.21-1-8.1-1.56s3-9,3.26-9Z" transform="translate(0 -0.75)" />
                <path class="cls-18" d="M36.45,47.32c-3.57-2-12.1-8-12.1-8-3.8-.35-4.36,6.26-1.59,7.73,2.15,1.14,7.54,4.28,11.13,5.92a56.66,56.66,0,0,1,2.57-5.62Z" transform="translate(0 -0.75)" />
                <path id="_Path_33" data-name="&lt;Path&gt;" class="cls-19" d="M24.35,39.28c-6-3-16.21-1.26-20.21,3.13s4.41,12.52,5.8,17.2-8.2,17.8-5,21.82C11.11,85,29,82.57,30.7,77.28c-.06-7.84-4.75-14.71-3.63-18,.06-2.09,3.06-8.92,1.86-11.55C26.48,42.38,27,40.92,24.35,39.28Z" transform="translate(0 -0.75)" />
                <path id="_Path_34" data-name="&lt;Path&gt;" class="cls-20" d="M23.64,23a15.09,15.09,0,0,1,.51,5.1c-.31,2.23-.51,6.68-2.49,8.1S16.85,36,15,34.37a11.15,11.15,0,0,1-3.91-8.09c0-3.56,1.35-7.91,6.47-7.69A6.21,6.21,0,0,1,23.64,23Z" transform="translate(0 -0.75)" />
                <path id="_Path_35" data-name="&lt;Path&gt;" class="cls-20" d="M14.91,33.15s.33,4.58-.66,6.27c-.07,1.13,2.61,5.9,5.28,5.07,1.55-.49,1.37-2.67,1.37-2.67-.17-1.67,0-5.69,0-5.69Z" transform="translate(0 -0.75)" />
                <path id="_Path_36" data-name="&lt;Path&gt;" class="cls-7" d="M18.94,23.14a6.59,6.59,0,0,1-4.26,4.52c-.52,4.86.63,8.31,2.2,9.07-4.25,1.54-6.71.36-7.87-1.92s-2.06-12,2.72-15S18.94,23.14,18.94,23.14Z" transform="translate(0 -0.75)" />
                <path id="_Path_37" data-name="&lt;Path&gt;" class="cls-7" d="M18.94,23.14c1.48,2,4.74,2.08,5.28,2-.07-7.73-7.54-8.51-10-5.73C16.24,23.23,18.94,23.14,18.94,23.14Z" transform="translate(0 -0.75)" />
                <path id="_Path_38" data-name="&lt;Path&gt;" class="cls-21" d="M5,42.11" transform="translate(0 -0.75)" />
                <path id="_Path_39" data-name="&lt;Path&gt;" class="cls-8" d="M13.15,59c.29-.13-1.45-13.89-1.45-13.89l12.13-2.4L24.35,64l-11,2.57Z" transform="translate(0 -0.75)" />
                <path id="_Path_40" data-name="&lt;Path&gt;" class="cls-9" d="M19.62,55.51s3.87-3.77,4.72-4.64.85.3-.26,2.32c1.74.41,2.86,2.74,3,3.56S25,59.68,24.35,59.93a13.62,13.62,0,0,1-3.21,0Z" transform="translate(0 -0.75)" />
                <path id="_Path_41" data-name="&lt;Path&gt;" class="cls-22" d="M6.09,41.47c3.31.24,3.84,18.15,3.84,18.15s9.06-4.21,9.69-4.1c3.36.73,1.51,4.42,1.51,4.42-7.09,5.38-10,8.48-13.42,7.81s-6.08-13-6-18.62S4,41.32,6.09,41.47Z" transform="translate(0 -0.75)" />
            </g>
            <g id="Group_7" data-name="&lt;Group&gt;" class="cls-23">
                <path id="_Path_42" data-name="&lt;Path&gt;" class="cls-24" d="M143.85,73.79a56.9,56.9,0,0,1-55.79,56.95H85.71a57,57,0,1,1,58.13-56.95Z" transform="translate(0 -0.75)" />
                <g id="_Clip_Group_" data-name="&lt;Clip Group&gt;">
                    <g class="cls-25">
                        <g id="_Group_8" data-name="&lt;Group&gt;" class="cls-26">
                            <path id="_Path_43" data-name="&lt;Path&gt;" class="cls-27" d="M69.21,128.42c.83-.17-.08-1.58,1.41-1.41s5.15,1.3,6.64.32-1-2.15.75-2.64,3.39-1.4,3.65-2.49.33-1.83-1-2.08-2.66-1.66-3.82-2-3.24-.17-4.48-.91S68.13,114,67,113.89s-3.65,0-2.41-.42,2.16-.33,1.58-.91-2-3.32-3-4.07-3.74-1.41-5-3a35.36,35.36,0,0,1-2.91-5.15s-3.57-1-4.82-2.57S48,94.62,47.21,94.46s-1.41-.75-1.91-.83-.83.75-1.41,1.08-1.16-1.08-1.49-2.16-1.49-.66-2-1.58a8.38,8.38,0,0,1-.91-3.32c.08-.58,1-2.49.75-3.4s-1.66-1.91-2.08-2.82.58-2.57,1.16-3.4,1.25-1,.42-1.74-1.86-.83-1.68,0-.73,1.06-1.4-.59-.91-5.55.42-7,.5-3.4,2-3.07,1.83,1.49,2.16,2.66,1,1.41.91-.25a9.75,9.75,0,0,1,1.74,3.24c.25.25.58.25.58.75a34.39,34.39,0,0,0-.33,3.82c.08,1.16,0,2.24.5,2.08s.91-2.41.91-3.82.33-2.91,1.08-3,1.49-.83,2.41-.66a2.17,2.17,0,0,0,2.41-1.25c.25-.91,3.16-3.65,4-3.61s1.58,1.2,2.32,1-.14-2.08,1.22-2.24,2.69-.58,2.93,0-1.66.91-1.08,1.33,1.66-.33,2.41-.25,2.82.75,2.91-.08.25-1.84-.42-1.3-.58,1.3-1.08.63-1.08-.77-.91-1.76,1.41-2,1.08-2.23-2.16-.33-2.41-.66.75-1.33,2.16-1,2.24,1.49,3.16,1.41S70,59,70,59.91s-1.66,2.22-1.91,3,.17,1.18,1.33,1.51,1.08,1.49,1.74,1.16,1.08-2.82.33-3.24-1.66,1-1.08-.75,1.83-2,1.33-3.57-1.49-3.4-1.49-4.07.75-4.15.75-4.15-1.08,1.25-1.83,1-1.25-.75-.83-1.33,1.41-1.58,1.16-1.66a1,1,0,0,1-.58-.91,2.91,2.91,0,0,0-.75-1.41c-.25-.33-.25-.83-.66-.75s-1.08,1.16-1.33,1.83-1.66.83-1.66,1.41.17,2.24-1.25,2.49-2.16,0-2.41.42S59.52,53.77,59,53.6s-.28-1.16,0-2.24,1.27-.83,1.11-1.91-.75-.58-.58-1.58S58.77,45.46,59,45s1-.5.94-1.16.17-2.66,1.83-2.74a25,25,0,0,0,5.56-1,1.51,1.51,0,0,1,1.58,0c.33.25.33.23,1.08-.22s3.16-1.77,3.49-1.44,0,2.24-.75,3-1.25,1.74-1.83,1.58-2.08-1.08-1.66-.42,1.49.91,1.49,1.41-.42,2.57.17,2.91.66-1.16.91-1.25.08,1.74.66,1.16A6.28,6.28,0,0,0,73.36,44c.08-.66-.33-.83.08-.66s0,1.83.75,1.83,2.41-.25,1.74-1.16-1-2.41-.75-2.57a1.14,1.14,0,0,0,.66-.91c0-.5.83-2.82-.33-3.16s-1.83.42-1.16-.33a4.67,4.67,0,0,0,.91-1.74,3.23,3.23,0,0,0-2.66.83c-.91,1.08-.66,1.41-.91,1.58s-2,1.33-2.24.91S70.87,37.24,71,37a16.22,16.22,0,0,1,1.16-2.41,39.29,39.29,0,0,0-3.49,2.08c-.75.66-2.16.91-2,.66S71,35.33,70,35s-2.82,1.16-3.16.5.58-.26.25-.92-1.49.34-1.25-.83-.25-1.41.5-1.49.83-.75,1.41-1.74.66-3.65,1.33-3.74,5.23-2.41,5.65-3.4,1.91-1.91.25-1.58-3.16.91-2.91.58.08-1.22-1.33-.65-6.06,1.9-6.31,2.73.58.91-2.32,2.82-5.4,4.57-6.73,5.4-1.16,1.74-2.32,2.24-1.41.17-2.41,1.41-4.9,4-5.65,5.15A50.66,50.66,0,0,0,38,53.93C35.66,60.41,34.33,66.56,34.42,68s-.17,7.06.5,8.05a9.8,9.8,0,0,1,1.41,4.23c.17,1.66,1.49,2.57,1.91,3.57s.17,3.24.25,3.9,2.08,4.32,2.24,4.9.5-.66.83,0a9.71,9.71,0,0,1,1.08,4.07c0,1.74-2.24,1.83-1.66,3.4S47.12,111,49.45,114.3a52.3,52.3,0,0,0,10.3,9.8Z" transform="translate(0 -0.75)" />
                            <path id="_Path_44" data-name="&lt;Path&gt;" class="cls-27" d="M50.53,90.14c.17,1-4.36-1.74-4.61-2.55s2,1.18,1.74.31-1-1.62-.5-1.74S50.34,89.08,50.53,90.14Z" transform="translate(0 -0.75)" />
                            <path id="_Path_45" data-name="&lt;Path&gt;" class="cls-27" d="M46.23,85.22c-.72-.3-2.24-.56-2-1.56s-1.37-3.8-1.81-4.36-1.49-1.31-1-1.43,1.18.75,2.06,1.74,2.8,4.48,3.18,5S47.67,85.81,46.23,85.22Z" transform="translate(0 -0.75)" />
                            <path id="_Path_46" data-name="&lt;Path&gt;" class="cls-27" d="M80.92,53.33c0-.65.56-1.43-.37-1.49s-1.74,2.55-1.68-1.62.29-5.85,1.08-6.29.69-1,1.08-1.74-.48-1,.27-2.55a5.09,5.09,0,0,0,0-3.86c-.25-.87.5-1.74,1.93-2.18A35.79,35.79,0,0,1,87,33c1.12-.25.93-1.18,1.93-.69s1.43,2.24,2.3,1.56,1.25-.25,1,.37-.66,1.37.08,2.12.48,1.87.67,3.11-1.18.19-1.31,1,1,1.16,1.31,2.29.31,2.19-.93,2.5-3.24-.62-3.67.25A9.5,9.5,0,0,1,86,48c-.77.62-.77-.19-1.39.81s-2.43,4-2.77,4.3S80.88,54,80.92,53.33Z" transform="translate(0 -0.75)" />
                            <path id="_Path_47" data-name="&lt;Path&gt;" class="cls-27" d="M69.21,34.34c-.48.74-1.81.06-1.56-.93s-.87-2.12.62-2.37,1.49.69,2.06-.31a3.31,3.31,0,0,1,1.56-1.37s1.87-1.49,1.43-.19S69.78,33.47,69.21,34.34Z" transform="translate(0 -0.75)" />
                            <path id="_Path_48" data-name="&lt;Path&gt;" class="cls-27" d="M78.18,34.15c-.7-.12-2-.62,0-1.25S82.85,30,84,30.48s.5,1.66.5,1.66S80,34.46,78.18,34.15Z" transform="translate(0 -0.75)" />
                            <path id="_Path_49" data-name="&lt;Path&gt;" class="cls-27" d="M95.24,50.16c-2.33,1-3.14-3.11-2.13-2.86s1.88-1,3-.12S96.74,49.53,95.24,50.16Z" transform="translate(0 -0.75)" />
                            <path id="_Path_50" data-name="&lt;Path&gt;" class="cls-27" d="M100.78,35.4c-2.3-.94-3.18-1.49-3-1.93s-.37-2.64,1-1.17S101.13,35.54,100.78,35.4Z" transform="translate(0 -0.75)" />
                            <path id="_Compound_Path_" data-name="&lt;Compound Path&gt;" class="cls-27" d="M146.31,73.7c0-.31-.81-.56-1.12.94s.56,3.55-.94,3.11a5.44,5.44,0,0,1-2.74-2.49,21.72,21.72,0,0,0-1.43-1.68c-.81-.93-2.68-2.68-2.18-3.17s.25-.88,1.43-.13,3.11,2.12,3.24,2.87.7,3.55,1.62,3,.5-5.11.37-6.23.12-6.29-.18-7.6-.94-2.61-1.31-2.68-.56.37-.37,1.37,1,3,.06,1.9-2.49-2.65-1.93-2.77.75,1.18.87,0-.25-2.37.44-2-1.37-6.66-1.43-8-6.94-19.86-30.5-29.89-28.85-2.62-28.85-2.62c-.31.5-3.62,1.43-3.87,2.12s-.5.56-1.49.68-3.3.5-1.43.63,7.85-1.38,10.53-1.62a20.94,20.94,0,0,1,5.66.44c1.74.19,6,.25,6,.25s-.66,1.56,1,1.41a3.39,3.39,0,0,1,2.7.71c.56.31-.75.56-.5.87s1.87.37,4.42,2.05,3.62.94,4.42,1.13-2.55.18-1.12,1.31,4.73,1.88,4.8,2.81-.38,2.44.18,3.18a21.88,21.88,0,0,1,1.68,3.17c.69,1.37,3.24,2.8,1.13,2.61s-3.49-.31-2.62-.75,1.38-1.86.13-1.61-5.55.31-6,.75.25,1.49.68,3.55a12.66,12.66,0,0,1,.06,5.11c-.25,2.43-.18,2.29.43,3.89s1.93,2.53,2.18,2-.37-2.63.94-2,2.18,2.22,2.61,2.59,1.19.68,1.38,0-1.25-3.3-1.06-3.8-.68-1.25-.68-1.25A3.82,3.82,0,0,1,112.06,46a5.65,5.65,0,0,0-.56-1.93c-.5-1.06-1.06-2.24-.56-2.24s.81.31,1.25,1.8a3.63,3.63,0,0,0,1.12,2.06,3.51,3.51,0,0,0,2.18.75c.62-.12.56-1.74,1.43-1.49s-1.12,1.12-.68,1.93,2.24,1.68,2.18,2.06-1.62-.56-1.49.06a10,10,0,0,0,1.49,2.3c.31.44.18,1.87-.43,1.62s-.63-1.62-1.06-.37-.18,1.74-.87,2.05-.12,0-.69.31-1.43.68-1.86,0,0-1-.56-1.62-1.12-1.68-1.18-.94a2,2,0,0,0,.5,1.81c.56.75,1.25,1.18,1.12,1.81s-1.31.68-1.49,2.05.25,1.31-.25,2-.5.69-.5,1.31a2.42,2.42,0,0,1-.68,1.59c-.31.28-1.12-.72-.93,0s.75,1,.12,1.15-2.11.19-1.74.56a3.25,3.25,0,0,0,1.81.68c.5,0,1.12.94,1.49,1.49a3.9,3.9,0,0,1,.5,2.24c-.12.44-2.86,1.19-3.74,1.43s-1.37.25-1.43.69a5,5,0,0,0,.62,2.43c.5,1-.37,1.56-.06,2.18s1,1.19.75,1.74.75-.12,1.8.31.69,1.31,1.56.81.18-1,.93-1.19,1.56.25,1.62-.44,1.12-2.55,1-2.74-1-.18-.56-1a22.94,22.94,0,0,0,1.49-3.36c0-.31-1.12-1.56,0-1.68s1.06.25,1.49-.25.56-2.68,1.68-2.43,1.74,1.19,2.8,1.31,2.74.43,3.24,1.25-.43,2.31-.43,2.31-1,.43-.69.68,1.93.5,1.93.25-.94-.62-.5-1.06a3,3,0,0,0,.5-2.18c-.19-.31-1.31-.68-.69-.93s1.37.12,1.19-.38-1.49-.87-2.12-.93a5.37,5.37,0,0,1-2.18-.5c-.56-.37-1.25-.62-1.37-1.06s-1.12-1.56-.25-1.4,1.55.9,2.37,1,3.61.56,3.58.87-.4.69.53,1.19a5,5,0,0,1,2,1.55c.25.5.69,1.49.94.69A8.71,8.71,0,0,0,129.8,66c.06-.5-2.43-1.06-1.74-1.43s.94-.37.88-.81-.31-1.81.68-.9,1.62,2.53,2.56,2.53.81-.13,1-.75.18-.75.93-.81.37-2.43,1-1.74a15.92,15.92,0,0,1,2,5.11c.06,1-1.18,1.19-1.49,1.93s-.56,2.05-2.06,2.18-2.05,0-2.49,1,.31,1.57-.06,2.66-.37,1.45-1.43,1.08-1.8.5-1.93-.18-1.68,1.06-2.49.87-.43-.5-1.12-.68-.19-.42-.31-1.08-1.13-1.47-.81-1.72-.12-.93-.62-.5.12.56-1.06,1.13a12.31,12.31,0,0,0-2.49,1.1c-.63.52-.19.58-1.25,1s-1.56.06-1.56.69-.5,1.06-1.37,1.61-.5.81-1.31,1a8.77,8.77,0,0,1-1.87,0c-.37.06-1.25.06-1.18.69s-.12,2.05-.68,2.43-.75,0-1,1.25.12,1.12.18,2.05a3.44,3.44,0,0,1-1.49,2.93c-1,.56-1.7-.31-1.72.75a3.26,3.26,0,0,1-.89,2.05c-.37.56-.44.62-.31,1.74s-1.43,1.31-1.68,2.49-.56,1.25-.19,2,1,1.19.75,2.55a19.6,19.6,0,0,1-.87,2.68c-.19.75.56,1.68.62,2.62s1.19.87,1.81,1.68,1.62.69,1.93,1.43,1.13.69,1.87,1.12.93,1.31,2.92.93,1.87-1.18,3.36-1.43,1.49-.62,3.36-1.25,2.24-2.18,3.55-2.62,1.68-.69,2.36-.37-1.12,1.49.31.87,1.49-1.68,2.68-1.55.63.31.38,1.49-1.56,2.74-1.13,3,1.93.5,2.31,1.19-.87,1.06-.43,1.86.81.88.18,1.25-2.3,3.28-2.86,4.05-.44,1.62.56,1.81,18.13-24.54,19.62-30.89S146.31,74,146.31,73.7ZM132.17,58c-1.38.37-.31,2.32-.81,2.62-.73.44-2.31,1.25-2.62-.87s-2.05-5.48-.81-4.67.93,2.37,1.49,1.19,1.43-1.68.81-1.74-.82,1.12-.81-.25-.5-2.68,0-1.93-.12,1.81,1.43,1.81,2.49-.56,2.68.75S133.54,57.63,132.17,58Zm5-4.11c-1,0-1.06-1.74-2.37-2.06s-2.62-.37-2.92-2.11-1-4-.38-3.49,1.19,2.32,1.38,2.34,1.42.71,1.34.46.84-.81,1.09-.19.12,1.11.37,1.46,1.55,1.41,1.93,1.81S138.09,53.89,137.22,53.89Z" transform="translate(0 -0.75)" />
                            <path id="_Path_51" data-name="&lt;Path&gt;" class="cls-27" d="M107.07,63.17c.07.18.5-1.37,1.81-1.68s1.66-.5,1.33-1.06-.58-.31-.46-.87-1.31-1-1.56-1.43-.93-1-1.12-1.31-.93-.31-1-.75.69-1.49,0-1.49-1.25.37-1.25,0,.25-1.76-.44-.94-.31,1.5-.31,1.94.81,1.43.75,1.62.19-.93.37-.56-.12.93.25.87,1.18-.06,1.25.25.53.81.45,1-.7.37-.64.56.25.31.25.62-.5.87-.25.93,1-.62.64.12A2.87,2.87,0,0,0,107.07,63.17Z" transform="translate(0 -0.75)" />
                            <path id="_Path_52" data-name="&lt;Path&gt;" class="cls-27" d="M103.52,62.11c-.54-.12-.19-1.18-.12-1.62s-.75-.31-.75-1.06,1-.12.87-.69.31-.43.81-.46.62.9.81,1.27.56.56,0,1.06S104.08,62.24,103.52,62.11Z" transform="translate(0 -0.75)" />
                            <path id="_Path_53" data-name="&lt;Path&gt;" class="cls-27" d="M120.46,71c-.68-.25-.93-1.56-.81-1.81s1.25-.75,1.37.31S121.65,71.39,120.46,71Z" transform="translate(0 -0.75)" />
                            <path id="_Path_54" data-name="&lt;Path&gt;" class="cls-27" d="M76.75,35.15c-.58-.29-2.06-1.1-1.56-1.55s1.62-1.19,1.56-.32S77.62,35.59,76.75,35.15Z" transform="translate(0 -0.75)" />
                            <path id="_Path_55" data-name="&lt;Path&gt;" class="cls-27" d="M73.39,33.6c-.78.22-1.75.38-1.81,0s.56-1,1.06-1S74.09,33.4,73.39,33.6Z" transform="translate(0 -0.75)" />
                            <path id="_Path_56" data-name="&lt;Path&gt;" class="cls-27" d="M110.87,32.59a1.06,1.06,0,0,1-1.68,0c-.44-.37-3.11-1.87-4-2.43s-1.93-1.38-1.87-1.53a1.24,1.24,0,0,1,1.43.35c.37.56,2.93,1.87,4,2.3S111.56,31.91,110.87,32.59Z" transform="translate(0 -0.75)" />
                        </g>
                        <g id="_Group_9" data-name="&lt;Group&gt;" class="cls-28">
                            <g id="_Group_10" data-name="&lt;Group&gt;">
                                <path id="_Path_57" data-name="&lt;Path&gt;" class="cls-27" d="M87.25,107.75c-15.05,0-30.13-3.32-41.63-10-11.1-6.41-17.26-14.93-17.36-24h.61C29,82.63,35,91,45.93,97.26c22.73,13.12,59.59,13.19,82.17.15C139,91.1,145,82.71,144.9,73.79h.61c.1,9.15-6,17.73-17.1,24.15C117.08,104.48,102.18,107.75,87.25,107.75Z" transform="translate(0 -0.75)" />
                            </g>
                            <g id="_Group_11" data-name="&lt;Group&gt;">
                                <path id="_Path_58" data-name="&lt;Path&gt;" class="cls-27" d="M57.89,124.16c-7.94-4.43-12.32-13.91-12.32-26.69,0-26,18.46-57.89,41.16-71,10.39-6,20.34-7.29,28-3.63l-.26.55C107,19.82,97.25,21.1,87,27,64.51,40,46.18,71.62,46.18,97.47c0,12.55,4.26,21.84,12,26.16Z" transform="translate(0 -0.75)" />
                            </g>
                            <g id="_Group_12" data-name="&lt;Group&gt;">
                                <path id="_Path_59" data-name="&lt;Path&gt;" class="cls-27" d="M115.88,124.16l-.3-.53c7.74-4.32,12-13.61,12-26.16C127.59,71.62,109.26,40,86.73,27c-10.21-5.9-20-7.18-27.45-3.61L59,22.84c7.68-3.66,17.63-2.37,28,3.63,22.7,13.1,41.16,45,41.16,71C128.2,110.24,123.82,119.72,115.88,124.16Z" transform="translate(0 -0.75)" />
                            </g>
                            <g id="_Group_13" data-name="&lt;Group&gt;">
                                <rect id="_Path_60" data-name="&lt;Path&gt;" class="cls-27" x="86.58" y="14.9" width="0.61" height="116.29" />
                            </g>
                            <g id="_Group_14" data-name="&lt;Group&gt;">
                                <path id="_Path_61" data-name="&lt;Path&gt;" class="cls-27" d="M145.33,73.79h-.61C144.73,48,118.78,27,86.89,27S29,48,29,73.79h-.61c0-26.12,26.22-47.36,58.45-47.36S145.33,47.68,145.33,73.79Z" transform="translate(0 -0.75)" />
                            </g>
                        </g>
                    </g>
                </g>
            </g>
            <polygon class="cls-8" points="14.74 37.17 14.26 38.9 17.57 42.84 20.9 41.98 20.83 37.38 22.66 38.82 21.29 43.45 18.02 44.4 13.21 40.22 13.06 38.11 14.74 37.17" />
            <g id="_Group_15" data-name="&lt;Group&gt;">
                <g id="_Group_16" data-name="&lt;Group&gt;">
                    <path id="_Path_62" data-name="&lt;Path&gt;" class="cls-29" d="M39.06,212.39v.78c1.55.91,5,.43,5.94,0,.6-.91,2.22-.67,3.13-.31,3.48.31,4.75-.21,5.92-1.06a3.47,3.47,0,0,0,1.52-2.74C51.43,210,39.06,212.39,39.06,212.39Z" transform="translate(0 -0.75)" />
                    <path id="_Path_63" data-name="&lt;Path&gt;" class="cls-30" d="M45,206.37s3.8,1.07,6.05,1.39,3.86-.05,4.39.75-.64,2.89-2.62,3.59-6.05-.11-7.55.21-5.3,1-6.21.08,0-5.49,0-5.49Z" transform="translate(0 -0.75)" />
                    <path id="_Path_64" data-name="&lt;Path&gt;" class="cls-30" d="M23.93,201.36l6.8-7.62c2.71-.78,5.57-.94,5.2,1.57-.32,2.22-3.86,3.19-6.29,5.35l-2.24,2c-1.61,1.43-3.67.18-3.47-1.29" transform="translate(0 -0.75)" />
                    <path id="_Path_65" data-name="&lt;Path&gt;" class="cls-9" d="M67.44,103.59A11.61,11.61,0,0,0,71.53,99a13.72,13.72,0,0,0,1.2-4.32,6.89,6.89,0,0,0-.94-3.83.73.73,0,0,0-.21-.25c-.34-.22-.73.17-.95.51a41.66,41.66,0,0,1-3.82,5.77,7.77,7.77,0,0,1,.64-2c.49-1-.36-1-.36-1a12.17,12.17,0,0,0-2.46,4l-.83,3.55.31.28-.41.57S66.42,104.21,67.44,103.59Z" transform="translate(0 -0.75)" />
                    <path id="_Path_66" data-name="&lt;Path&gt;" class="cls-31" d="M24.48,109.82s-9.4,3.42-2.08,13.1Z" transform="translate(0 -0.75)" />
                    <path id="_Path_67" data-name="&lt;Path&gt;" class="cls-9" d="M30.4,90.82a16.79,16.79,0,0,1,6.72.18A8,8,0,0,1,43,97.18c.8,3.14,1,8.37-.76,11.28-1.12,1.82-3.62,1.48-5.41,1a21.11,21.11,0,0,1-6.76-2.84c-2.47-1.87-3.77-5.95-3.92-8.9-.13-2.54,1.18-6.41,4.26-6.91" transform="translate(0 -0.75)" />
                    <path id="_Path_68" data-name="&lt;Path&gt;" class="cls-9" d="M30.36,106a6.67,6.67,0,0,0,.84.77,15.35,15.35,0,0,0,5.62,2.74c.34.09.72.17,1.1.24l-.17,2c-2.3.63-4.53-.34-6.11-.78-1.18-.33-3-.63-3-1.87L30.36,106Z" transform="translate(0 -0.75)" />
                    <path id="_Path_69" data-name="&lt;Path&gt;" class="cls-7" d="M27.7,91.24c-2,1.32-1.89,4.5-1.78,6.58.15,3,1.52,6.91,4,8.8a7.42,7.42,0,0,0,3.28,1.73,10.64,10.64,0,0,0,1.06-.72,3,3,0,0,0,1.14-3.3c-.37-1.2-.41-2.64.27-3,1.11-.61,1.85,1.55,1.85,1.55a1.64,1.64,0,0,0,1.08-2.25,3.82,3.82,0,0,1,0-2.62c2,0,2.88-2.64,3.51-3,1.33-.75,1.77-1,1.56-2.31a3.9,3.9,0,0,0-1.09-2.22,13.28,13.28,0,0,0-4-1.77C33.17,87.33,29,88.31,27.7,91.24Z" transform="translate(0 -0.75)" />
                    <path id="_Path_70" data-name="&lt;Path&gt;" class="cls-29" d="M27.4,202.66l2.24-2c2.43-2.16,6-3.13,6.29-5.35h0a2.44,2.44,0,0,1,0,.75c-.32,2.22-3.86,3.19-6.29,5.35l-2.24,2c-1.9,1.69-3.91.48-3.47-2-.2,1.47,1.86,2.73,3.47,1.29" transform="translate(0 -0.75)" />
                    <path id="_Path_71" data-name="&lt;Path&gt;" class="cls-7" d="M24,148.44c-2.35,3.32,3.52,12.53,1.92,24-1.09,7.77-3.21,20.82-2.71,28.18.09,1.34,5.34,2.3,6.76-4.19,2.42-11,5.44-17.92,6.51-26.49l-.57-24.84Z" transform="translate(0 -0.75)" />
                    <path id="_Path_72" data-name="&lt;Path&gt;" class="cls-7" d="M31.48,147.23c-.65,10.32,6.75,22.95,6.26,31.28-.5,8.59.43,19,.45,28.34,0,0,7.6,3.6,7.94-2,1.12-18.22,4.6-23.89-.1-57.22Z" transform="translate(0 -0.75)" />
                    <path id="_Path_73" data-name="&lt;Path&gt;" class="cls-32" d="M45.24,137.24a106.1,106.1,0,0,0-1.59-19.74,13.57,13.57,0,0,0-3.24-3.31L38,111.25a87,87,0,0,1-9.09-2.76l-4.41,1.33c-3.59,1.52-4.77,6.16-3.17,10.79,0,.21,3.65,10.72,4.06,14.61,0,.38-2.72,10.7-3.32,14.9,0,0,2.62,2.39,3.34,3,5.33,6.61,22.74-1.41,23.4-4.93C49,146.87,46.9,142.78,45.24,137.24Z" transform="translate(0 -0.75)" />
                </g>
                <path id="_Path_74" data-name="&lt;Path&gt;" class="cls-33" d="M39.38,124.42c-3.52.09-6.59-4.6-4.66-7.56a4.57,4.57,0,0,1,2.5-2.26c2.91-.83,11.56,1.18,17.08,1.32,4.42-5.38,9.3-15,9.3-15A4.91,4.91,0,0,1,68,103.67c-7.45,19.18-9.9,19.48-10.32,19.92S39.42,124.41,39.38,124.42Z" transform="translate(0 -0.75)" />
            </g>
            <path id="_Path_75" data-name="&lt;Path&gt;" class="cls-34" d="M123.45,211.36v.78c-1.55.91-5,.43-5.94,0-.6-.91-2.22-.67-3.13-.31-3.48.31-4.75-.21-5.92-1.06a3.47,3.47,0,0,1-1.52-2.74C111.09,209,123.45,211.36,123.45,211.36Z" transform="translate(0 -0.75)" />
            <path id="_Path_76" data-name="&lt;Path&gt;" class="cls-30" d="M117.51,205.34s-3.8,1.07-6.05,1.39-3.85-.05-4.39.75.64,2.89,2.62,3.59,6.05-.11,7.55.21,5.3,1,6.21.08,0-5.49,0-5.49Z" transform="translate(0 -0.75)" />
            <path id="_Path_77" data-name="&lt;Path&gt;" class="cls-30" d="M138.58,200.33l-6.8-7.62c-2.71-.78-5.57-.94-5.2,1.57.32,2.22,3.86,3.19,6.29,5.35l2.24,2c1.61,1.43,3.67.18,3.47-1.29" transform="translate(0 -0.75)" />
            <path id="_Path_78" data-name="&lt;Path&gt;" class="cls-34" d="M135.11,201.62l-2.24-2c-2.43-2.16-6-3.13-6.29-5.35h0a2.44,2.44,0,0,0,0,.75c.32,2.22,3.86,3.19,6.29,5.35l2.24,2c1.9,1.69,3.91.48,3.47-2,.2,1.47-1.86,2.73-3.47,1.29" transform="translate(0 -0.75)" />
            <path id="_Path_79" data-name="&lt;Path&gt;" class="cls-7" d="M138.54,147.4c2.35,3.32-3.52,12.53-1.92,24,1.09,7.77,3.21,20.82,2.71,28.18-.09,1.34-5.34,2.3-6.76-4.19-2.42-11-5.44-17.92-6.51-26.49l.57-24.84Z" transform="translate(0 -0.75)" />
            <path id="_Path_80" data-name="&lt;Path&gt;" class="cls-7" d="M131,146.2c.65,10.32-6.75,22.95-6.26,31.28.5,8.59-.43,19-.45,28.34,0,0-7.6,3.6-7.94-2-1.12-18.22-4.6-23.89.1-57.22Z" transform="translate(0 -0.75)" />
            <path id="_Path_81" data-name="&lt;Path&gt;" class="cls-9" d="M140.62,75.48a11.61,11.61,0,0,0-.56-6.09,13.72,13.72,0,0,0-2.36-3.82,6.89,6.89,0,0,0-3.45-1.91.72.72,0,0,0-.33,0c-.39.1-.37.65-.27,1a41.65,41.65,0,0,1,1.64,6.73,7.78,7.78,0,0,1-1.05-1.84c-.4-1-1-.39-1-.39a12.17,12.17,0,0,0,1.29,4.55c.57.85,2.46,3,2.46,3,.09.42.14.69.14.69S140.38,76.65,140.62,75.48Z" transform="translate(0 -0.75)" />
            <path id="_Path_82" data-name="&lt;Path&gt;" class="cls-35" d="M134.2,107.24s4.77-12.11,5.1-15.94-2.58-14.25-2.58-14.25,2.53-3.76,4.24-4.11c4.17,8.77,5.29,15.92,5.29,20.61s-5.09,21.92-5,21.79S130,116.52,134.2,107.24Z" transform="translate(0 -0.75)" />
            <path id="_Path_83" data-name="&lt;Path&gt;" class="cls-36" d="M117.27,136.21a106.09,106.09,0,0,1,1.59-19.74,13.57,13.57,0,0,1,3.24-3.31l4.47-2.52c1.73-.42,1.39-1.32,3.08-1.84a14.31,14.31,0,0,1,8.38,0h0c3.59,1.52,4.27,3.94,2.68,8.57,0,.21-.88,12.22-1.3,16.11,0,.38.45,14.39,1.05,18.6,0,0-2.62,2.39-3.34,3-7,3.86-21.64.09-22.3-3.43C114.58,150.32,115.61,141.75,117.27,136.21Z" transform="translate(0 -0.75)" />
            <path class="cls-37" d="M123.11,94.65s-.95,3.5-1.13,4.21a6.77,6.77,0,0,0,0,2.2c.06.47-.77,1.78-.65,2.37s.65,4.15,1.78,5.16,3.2.65,3.2.65a23.59,23.59,0,0,0,0,3.56c.18.42,5,.06,7.06-1.13s1.31-4.39,1.31-4.39l-5.16-12.64Z" transform="translate(0 -0.75)" />
            <path class="cls-12" d="M123.11,94.65a10.4,10.4,0,0,1,0-4.27c.53-1.78,5.34-1.6,7-1.07s7.65,2.49,8,3.92a5.7,5.7,0,0,1,0,2.67s1.16,2,1,3.12-4.45,8.28-4.45,8.28-2.71.36-3.67-.44-1.85-3.92-3.09-4.27-1.69,2-1.69,2l-.8-.62s.45-2.58-.09-3.47a7.89,7.89,0,0,0-1.34-1.6l.71-2.76Z" transform="translate(0 -0.75)" />
            <path id="_Path_84" data-name="&lt;Path&gt;" class="cls-9" d="M94.26,133.4a11.61,11.61,0,0,1-6.06.8,13.73,13.73,0,0,1-4.24-1.45,6.89,6.89,0,0,1-2.63-2.94.73.73,0,0,1-.09-.32c0-.4.56-.51,1-.5a41.65,41.65,0,0,0,6.92.11,7.78,7.78,0,0,0-2-.62c-1.1-.16-.59-.85-.59-.85a12.17,12.17,0,0,1,4.72.25l3.4,1.32.06.42.7,0S95.34,132.91,94.26,133.4Z" transform="translate(0 -0.75)" />
            <path id="_Path_85" data-name="&lt;Path&gt;" class="cls-38" d="M127.3,122c2.06-2.86-.08-8-3.6-8.12a4.57,4.57,0,0,0-3.28.78c-2.33,1.93-5.56,10.21-8.56,14.84-6.94.6-17.6-.77-17.6-.77a4.91,4.91,0,0,0-.26,5.18c20,4.69,21.66,2.83,22.26,2.74S127.27,122,127.3,122Z" transform="translate(0 -0.75)" />
            <path class="cls-27" d="M126.25,110.8l-1,2.85,2.08.81,7.77-1.83.76-4.32H135l-.61,2.35s-4.27,4.1-8.17.73Z" transform="translate(0 -0.75)" />
        </g>
    </g>
</svg>